<svg width="37" height="37" viewBox="0 0 37 37" fill="none" xmlns="http://www.w3.org/2000/svg">
<rect x="0.542969" y="0.344238" width="36" height="36" rx="18" fill="#008FF9"/>
<path d="M25.7305 11.938H22.4492V10.688C22.4492 10.6021 22.3789 10.5317 22.293 10.5317H21.1992C21.1133 10.5317 21.043 10.6021 21.043 10.688V11.938H16.043V10.688C16.043 10.6021 15.9727 10.5317 15.8867 10.5317H14.793C14.707 10.5317 14.6367 10.6021 14.6367 10.688V11.938H11.3555C11.0098 11.938 10.7305 12.2173 10.7305 12.563V25.5317C10.7305 25.8774 11.0098 26.1567 11.3555 26.1567H25.7305C26.0762 26.1567 26.3555 25.8774 26.3555 25.5317V12.563C26.3555 12.2173 26.0762 11.938 25.7305 11.938ZM24.9492 24.7505H12.1367V17.3286H24.9492V24.7505ZM12.1367 16.0005V13.3442H14.6367V14.2817C14.6367 14.3677 14.707 14.438 14.793 14.438H15.8867C15.9727 14.438 16.043 14.3677 16.043 14.2817V13.3442H21.043V14.2817C21.043 14.3677 21.1133 14.438 21.1992 14.438H22.293C22.3789 14.438 22.4492 14.3677 22.4492 14.2817V13.3442H24.9492V16.0005H12.1367Z" fill="white"/>
</svg>
