<svg width="37" height="37" viewBox="0 0 37 37" fill="none" xmlns="http://www.w3.org/2000/svg">
<rect x="0.542969" y="0.344238" width="36" height="36" rx="18" fill="#008FF9"/>
<path d="M18.543 9.59424C13.7109 9.59424 9.79297 13.5122 9.79297 18.3442C9.79297 23.1763 13.7109 27.0942 18.543 27.0942C23.375 27.0942 27.293 23.1763 27.293 18.3442C27.293 13.5122 23.375 9.59424 18.543 9.59424ZM18.543 25.6099C14.5312 25.6099 11.2773 22.356 11.2773 18.3442C11.2773 14.3325 14.5312 11.0786 18.543 11.0786C22.5547 11.0786 25.8086 14.3325 25.8086 18.3442C25.8086 22.356 22.5547 25.6099 18.543 25.6099ZM22.418 14.1235C22.3415 14.0936 22.2598 14.0791 22.1777 14.0808C22.0956 14.0825 22.0147 14.1003 21.9395 14.1333L16.6465 16.4497L14.332 21.7427C14.2617 21.9028 14.2617 22.0845 14.332 22.2446C14.3984 22.397 14.5215 22.5161 14.6777 22.5767C14.752 22.606 14.8281 22.6196 14.9062 22.6196C14.9922 22.6196 15.0762 22.6021 15.1562 22.5669L20.4492 20.2505L22.7637 14.9575C22.7974 14.8803 22.8153 14.797 22.8161 14.7127C22.8169 14.6284 22.8007 14.5448 22.7684 14.4669C22.7361 14.3891 22.6884 14.3185 22.6282 14.2595C22.568 14.2005 22.4965 14.1542 22.418 14.1235ZM19.8086 18.7817L20.3203 19.2935L19.4922 20.1216L18.9805 19.6099L15.9648 20.9302L17.2832 17.9146L16.7852 17.4146L17.6133 16.5864L18.1113 17.0845L21.1289 15.7661L19.8086 18.7817ZM17.6133 16.5864L16.7852 17.4146L17.2832 17.9146L18.9805 19.6099L19.4922 20.1216L20.3203 19.2935L19.8086 18.7817L18.1133 17.0845L17.6133 16.5864Z" fill="white"/>
</svg>
