<svg width="37" height="37" viewBox="0 0 37 37" fill="none" xmlns="http://www.w3.org/2000/svg">
<rect x="0.542969" y="0.344238" width="36" height="36" rx="18" fill="#008FF9"/>
<path d="M24.6407 22.0141C24.1518 21.5249 23.5806 21.1255 22.9532 20.8344C23.8379 20.1176 24.4024 19.0239 24.4024 17.7973C24.4024 15.6333 22.5977 13.8579 20.4336 13.8911C18.3028 13.9243 16.586 15.6606 16.586 17.7973C16.586 19.0239 17.1524 20.1176 18.0352 20.8344C17.4077 21.1253 16.8364 21.5247 16.3477 22.0141C15.2813 23.0825 14.6758 24.4926 14.6368 25.9966C14.6362 26.0174 14.6399 26.0381 14.6475 26.0575C14.6551 26.077 14.6666 26.0946 14.6811 26.1096C14.6957 26.1245 14.7131 26.1364 14.7323 26.1445C14.7515 26.1525 14.7722 26.1567 14.793 26.1567H15.8868C15.9708 26.1567 16.0411 26.0903 16.043 26.0063C16.0801 24.8735 16.5391 23.813 17.3458 23.0083C17.7585 22.5933 18.2495 22.2643 18.7903 22.0404C19.331 21.8164 19.9108 21.702 20.4961 21.7036C21.6856 21.7036 22.8047 22.1665 23.6465 23.0083C24.4512 23.813 24.9102 24.8735 24.9493 26.0063C24.9512 26.0903 25.0215 26.1567 25.1055 26.1567H26.1993C26.2201 26.1567 26.2408 26.1525 26.26 26.1445C26.2792 26.1364 26.2966 26.1245 26.3112 26.1096C26.3257 26.0946 26.3371 26.077 26.3448 26.0575C26.3524 26.0381 26.356 26.0174 26.3555 25.9966C26.3165 24.4926 25.711 23.0825 24.6407 22.0141ZM20.4961 20.2973C19.8282 20.2973 19.1993 20.0376 18.7286 19.5649C18.4923 19.3305 18.3057 19.051 18.1799 18.743C18.0541 18.4349 17.9916 18.1047 17.9961 17.7719C18.002 17.1313 18.2579 16.5122 18.7051 16.0532C19.1739 15.5727 19.8008 15.3051 20.4708 15.2973C21.1329 15.2915 21.7754 15.5493 22.2481 16.0122C22.7325 16.4868 22.9981 17.1216 22.9981 17.7973C22.9981 18.4653 22.7383 19.0923 22.2657 19.5649C22.0338 19.7979 21.758 19.9826 21.4543 20.1083C21.1505 20.2341 20.8249 20.2983 20.4961 20.2973ZM15.6036 18.313C15.586 18.143 15.5762 17.9712 15.5762 17.7973C15.5762 17.4868 15.6055 17.1841 15.6602 16.8891C15.6739 16.8188 15.6368 16.7466 15.5723 16.7173C15.3067 16.5981 15.0625 16.4341 14.8516 16.227C14.6031 15.986 14.4075 15.6959 14.2773 15.375C14.1472 15.0542 14.0853 14.7098 14.0958 14.3637C14.1133 13.7368 14.3653 13.1411 14.8047 12.6919C15.2872 12.1977 15.9356 11.9282 16.625 11.936C17.2481 11.9419 17.8497 12.1821 18.3047 12.6079C18.459 12.7524 18.5918 12.9126 18.7032 13.0844C18.7422 13.145 18.8184 13.1704 18.8848 13.1469C19.2286 13.0278 19.5918 12.9438 19.9649 12.9048C20.0743 12.893 20.1368 12.7758 20.0879 12.6782C19.4532 11.4223 18.1563 10.5551 16.6563 10.5317C14.4903 10.4985 12.6856 12.2739 12.6856 14.436C12.6856 15.6626 13.25 16.7563 14.1348 17.4731C13.5137 17.7602 12.9415 18.1567 12.4454 18.6528C11.375 19.7212 10.7696 21.1313 10.7305 22.6372C10.73 22.658 10.7337 22.6788 10.7413 22.6982C10.7489 22.7176 10.7603 22.7353 10.7749 22.7502C10.7894 22.7651 10.8068 22.777 10.8261 22.7851C10.8453 22.7932 10.8659 22.7973 10.8868 22.7973H11.9825C12.0665 22.7973 12.1368 22.7309 12.1387 22.6469C12.1758 21.5141 12.6348 20.4536 13.4415 19.6489C14.0157 19.0747 14.7188 18.6762 15.4864 18.4829C15.5625 18.4633 15.6133 18.3911 15.6036 18.313Z" fill="white"/>
</svg>
